<svg width="359" height="424" viewBox="0 0 359 424" fill="none" xmlns="http://www.w3.org/2000/svg">
<path d="M186.275 173.303L248.603 3M186.275 173.303L104.977 3M186.275 173.303L357 271.732M186.275 173.303L94.1374 216.555M357 271.732L248.603 3M357 271.732L281.5 340.903L186.275 422M357 271.732C300.092 247.933 186.275 244.668 186.275 422M248.603 3L261.295 216.555M104.977 3L2 259.806M104.977 3L94.1374 216.555M2 259.806L186.275 422M2 259.806C58.9084 236.007 186.275 244.668 186.275 422M2 259.806L94.1374 216.555" stroke="#B42929" stroke-width="2"/>
</svg>
