<svg width="245" height="289" viewBox="0 0 245 289" fill="none" xmlns="http://www.w3.org/2000/svg">
<path d="M127.099 118.432L169.412 3M127.099 118.432L71.9084 3M127.099 118.432L243 185.148M127.099 118.432L64.5496 147.748M243 185.148L169.412 3M243 185.148L193.328 232.032L127.099 287M243 185.148C204.366 169.017 127.099 166.804 127.099 287M169.412 3L178.028 147.748M71.9084 3L2 177.065M71.9084 3L64.5496 147.748M2 177.065L127.099 287M2 177.065C40.6336 160.933 127.099 166.804 127.099 287M2 177.065L64.5496 147.748" stroke="#B42929" stroke-width="2"/>
</svg>
